<mxfile host="app.diagrams.net" agent="Mozilla/5.0 (Windows NT 10.0; Win64; x64) AppleWebKit/537.36 (KHTML, like Gecko) Chrome/131.0.0.0 Safari/537.36" version="26.0.1">
  <diagram name="twoSum4 Algorithm Flowchart" id="wzxNMDoNjbbQpW1trq5z">
    <mxGraphModel dx="1881" dy="776" grid="1" gridSize="10" guides="1" tooltips="1" connect="1" arrows="1" fold="1" page="1" pageScale="1" pageWidth="1169" pageHeight="827" math="0" shadow="0">
      <root>
        <mxCell id="0" />
        <mxCell id="1" parent="0" />
        <mxCell id="aGmtrT8LyXVgIGSx6u2C-1" value="&lt;font face=&quot;Lucida Console&quot;&gt;Book&lt;/font&gt;" style="swimlane;fontStyle=1;align=center;verticalAlign=top;childLayout=stackLayout;horizontal=1;startSize=26;horizontalStack=0;resizeParent=1;resizeParentMax=0;resizeLast=0;collapsible=1;marginBottom=0;whiteSpace=wrap;html=1;spacingLeft=4;spacingRight=4;fontFamily=Helvetica;fontSize=12;fontColor=default;fillColor=none;gradientColor=none;" vertex="1" parent="1">
          <mxGeometry x="582" y="96" width="260" height="198" as="geometry" />
        </mxCell>
        <mxCell id="aGmtrT8LyXVgIGSx6u2C-2" value="&lt;font face=&quot;Lucida Console&quot;&gt;- ISBN: String&lt;/font&gt;&lt;div&gt;&lt;font face=&quot;Lucida Console&quot;&gt;- title : String&lt;/font&gt;&lt;/div&gt;&lt;div&gt;&lt;font face=&quot;Lucida Console&quot;&gt;&lt;br&gt;&lt;/font&gt;&lt;/div&gt;&lt;div&gt;&lt;font face=&quot;Lucida Console&quot;&gt;- subject : String&lt;/font&gt;&lt;/div&gt;&lt;div&gt;&lt;font face=&quot;Lucida Console&quot;&gt;- publisher : String&lt;/font&gt;&lt;/div&gt;&lt;div&gt;&lt;font face=&quot;Lucida Console&quot;&gt;- authors : List&amp;lt;Author&amp;gt;&lt;/font&gt;&lt;/div&gt;&lt;div&gt;&lt;font face=&quot;Lucida Console&quot;&gt;&lt;br&gt;&lt;/font&gt;&lt;/div&gt;&lt;div&gt;&lt;font face=&quot;Lucida Console&quot;&gt;- language : String&lt;/font&gt;&lt;/div&gt;&lt;div&gt;&lt;font face=&quot;Lucida Console&quot;&gt;- numberOfPages : int&lt;/font&gt;&lt;/div&gt;&lt;div&gt;&lt;font face=&quot;Lucida Console&quot;&gt;- bookItems : List&amp;lt;BookItem&amp;gt;&lt;/font&gt;&lt;/div&gt;" style="text;strokeColor=none;fillColor=none;align=left;verticalAlign=top;spacingLeft=4;spacingRight=4;overflow=hidden;rotatable=0;points=[[0,0.5],[1,0.5]];portConstraint=eastwest;whiteSpace=wrap;html=1;fontFamily=Helvetica;fontSize=12;fontColor=default;" vertex="1" parent="aGmtrT8LyXVgIGSx6u2C-1">
          <mxGeometry y="26" width="260" height="164" as="geometry" />
        </mxCell>
        <mxCell id="aGmtrT8LyXVgIGSx6u2C-3" value="" style="line;strokeWidth=1;fillColor=none;align=left;verticalAlign=middle;spacingTop=-1;spacingLeft=3;spacingRight=3;rotatable=0;labelPosition=right;points=[];portConstraint=eastwest;strokeColor=inherit;fontFamily=Helvetica;fontSize=12;fontColor=default;" vertex="1" parent="aGmtrT8LyXVgIGSx6u2C-1">
          <mxGeometry y="190" width="260" height="8" as="geometry" />
        </mxCell>
        <mxCell id="aGmtrT8LyXVgIGSx6u2C-5" value="&lt;font face=&quot;Lucida Console&quot;&gt;Author&lt;/font&gt;" style="swimlane;fontStyle=1;align=center;verticalAlign=top;childLayout=stackLayout;horizontal=1;startSize=26;horizontalStack=0;resizeParent=1;resizeParentMax=0;resizeLast=0;collapsible=1;marginBottom=0;whiteSpace=wrap;html=1;spacingLeft=4;spacingRight=4;fontFamily=Helvetica;fontSize=12;fontColor=default;fillColor=none;gradientColor=none;" vertex="1" parent="1">
          <mxGeometry x="282" y="156" width="200" height="78" as="geometry" />
        </mxCell>
        <mxCell id="aGmtrT8LyXVgIGSx6u2C-6" value="&lt;font face=&quot;Lucida Console&quot;&gt;- name: String&lt;/font&gt;&lt;div&gt;&lt;font face=&quot;Lucida Console&quot;&gt;- description : String&lt;/font&gt;&lt;/div&gt;" style="text;strokeColor=none;fillColor=none;align=left;verticalAlign=top;spacingLeft=4;spacingRight=4;overflow=hidden;rotatable=0;points=[[0,0.5],[1,0.5]];portConstraint=eastwest;whiteSpace=wrap;html=1;fontFamily=Helvetica;fontSize=12;fontColor=default;" vertex="1" parent="aGmtrT8LyXVgIGSx6u2C-5">
          <mxGeometry y="26" width="200" height="44" as="geometry" />
        </mxCell>
        <mxCell id="aGmtrT8LyXVgIGSx6u2C-7" value="" style="line;strokeWidth=1;fillColor=none;align=left;verticalAlign=middle;spacingTop=-1;spacingLeft=3;spacingRight=3;rotatable=0;labelPosition=right;points=[];portConstraint=eastwest;strokeColor=inherit;fontFamily=Helvetica;fontSize=12;fontColor=default;" vertex="1" parent="aGmtrT8LyXVgIGSx6u2C-5">
          <mxGeometry y="70" width="200" height="8" as="geometry" />
        </mxCell>
        <mxCell id="aGmtrT8LyXVgIGSx6u2C-20" value="" style="endArrow=diamondThin;endFill=1;endSize=24;html=1;rounded=0;fontFamily=Helvetica;fontSize=12;fontColor=default;exitX=1;exitY=0.5;exitDx=0;exitDy=0;" edge="1" parent="1" source="aGmtrT8LyXVgIGSx6u2C-6" target="aGmtrT8LyXVgIGSx6u2C-2">
          <mxGeometry width="160" relative="1" as="geometry">
            <mxPoint x="442" y="209.5" as="sourcePoint" />
            <mxPoint x="602" y="209.5" as="targetPoint" />
          </mxGeometry>
        </mxCell>
        <mxCell id="aGmtrT8LyXVgIGSx6u2C-21" value="&lt;font face=&quot;Lucida Console&quot;&gt;BookItem&lt;/font&gt;" style="swimlane;fontStyle=1;align=center;verticalAlign=top;childLayout=stackLayout;horizontal=1;startSize=26;horizontalStack=0;resizeParent=1;resizeParentMax=0;resizeLast=0;collapsible=1;marginBottom=0;whiteSpace=wrap;html=1;spacingLeft=4;spacingRight=4;fontFamily=Helvetica;fontSize=12;fontColor=default;fillColor=none;gradientColor=none;" vertex="1" parent="1">
          <mxGeometry x="549" y="380" width="330" height="284" as="geometry" />
        </mxCell>
        <mxCell id="aGmtrT8LyXVgIGSx6u2C-22" value="&lt;font face=&quot;Lucida Console&quot;&gt;- barcode: String&lt;/font&gt;&lt;div&gt;&lt;font face=&quot;Lucida Console&quot;&gt;- isReferenceOnly : boolean&lt;/font&gt;&lt;/div&gt;&lt;div&gt;&lt;font face=&quot;Lucida Console&quot;&gt;&lt;br&gt;&lt;/font&gt;&lt;/div&gt;&lt;div&gt;&lt;font face=&quot;Lucida Console&quot;&gt;- dateOfPurchase : Date&lt;/font&gt;&lt;/div&gt;&lt;div&gt;&lt;font face=&quot;Lucida Console&quot;&gt;- publicationDate : Date&lt;/font&gt;&lt;/div&gt;&lt;div&gt;&lt;font face=&quot;Lucida Console&quot;&gt;- price : double&lt;/font&gt;&lt;/div&gt;&lt;div&gt;&lt;font face=&quot;Lucida Console&quot;&gt;&lt;br&gt;&lt;/font&gt;&lt;/div&gt;&lt;div&gt;&lt;font face=&quot;Lucida Console&quot;&gt;- borrowed : Date&lt;/font&gt;&lt;/div&gt;&lt;div&gt;&lt;font face=&quot;Lucida Console&quot;&gt;- dueDate : Date&lt;/font&gt;&lt;/div&gt;&lt;div&gt;&lt;font face=&quot;Lucida Console&quot;&gt;&lt;br&gt;&lt;/font&gt;&lt;/div&gt;&lt;div&gt;&lt;font face=&quot;Lucida Console&quot;&gt;- format : BookFormat&lt;/font&gt;&lt;/div&gt;&lt;div&gt;&lt;font face=&quot;Lucida Console&quot;&gt;- status : BookStatus&lt;/font&gt;&lt;/div&gt;&lt;div&gt;&lt;font face=&quot;Lucida Console&quot;&gt;&lt;br&gt;&lt;/font&gt;&lt;/div&gt;&lt;div&gt;&lt;font face=&quot;Lucida Console&quot;&gt;- placedAt : Rack&lt;/font&gt;&lt;/div&gt;" style="text;strokeColor=none;fillColor=none;align=left;verticalAlign=top;spacingLeft=4;spacingRight=4;overflow=hidden;rotatable=0;points=[[0,0.5],[1,0.5]];portConstraint=eastwest;whiteSpace=wrap;html=1;fontFamily=Helvetica;fontSize=12;fontColor=default;" vertex="1" parent="aGmtrT8LyXVgIGSx6u2C-21">
          <mxGeometry y="26" width="330" height="224" as="geometry" />
        </mxCell>
        <mxCell id="aGmtrT8LyXVgIGSx6u2C-23" value="" style="line;strokeWidth=1;fillColor=none;align=left;verticalAlign=middle;spacingTop=-1;spacingLeft=3;spacingRight=3;rotatable=0;labelPosition=right;points=[];portConstraint=eastwest;strokeColor=inherit;fontFamily=Helvetica;fontSize=12;fontColor=default;" vertex="1" parent="aGmtrT8LyXVgIGSx6u2C-21">
          <mxGeometry y="250" width="330" height="8" as="geometry" />
        </mxCell>
        <mxCell id="aGmtrT8LyXVgIGSx6u2C-24" value="&lt;font face=&quot;Lucida Console&quot;&gt;+ checkout(String): boolean&lt;/font&gt;" style="text;strokeColor=none;fillColor=none;align=left;verticalAlign=top;spacingLeft=4;spacingRight=4;overflow=hidden;rotatable=0;points=[[0,0.5],[1,0.5]];portConstraint=eastwest;whiteSpace=wrap;html=1;fontFamily=Helvetica;fontSize=12;fontColor=default;" vertex="1" parent="aGmtrT8LyXVgIGSx6u2C-21">
          <mxGeometry y="258" width="330" height="26" as="geometry" />
        </mxCell>
        <mxCell id="aGmtrT8LyXVgIGSx6u2C-25" value="&lt;font face=&quot;Lucida Console&quot;&gt;Rack&lt;/font&gt;" style="swimlane;fontStyle=1;align=center;verticalAlign=top;childLayout=stackLayout;horizontal=1;startSize=26;horizontalStack=0;resizeParent=1;resizeParentMax=0;resizeLast=0;collapsible=1;marginBottom=0;whiteSpace=wrap;html=1;spacingLeft=4;spacingRight=4;fontFamily=Helvetica;fontSize=12;fontColor=default;fillColor=none;gradientColor=none;" vertex="1" parent="1">
          <mxGeometry x="155" y="440" width="220" height="78" as="geometry" />
        </mxCell>
        <mxCell id="aGmtrT8LyXVgIGSx6u2C-26" value="&lt;font face=&quot;Lucida Console&quot;&gt;- number: int&lt;/font&gt;&lt;div&gt;&lt;font face=&quot;Lucida Console&quot;&gt;- locationIdentifier : String&lt;/font&gt;&lt;/div&gt;" style="text;strokeColor=none;fillColor=none;align=left;verticalAlign=top;spacingLeft=4;spacingRight=4;overflow=hidden;rotatable=0;points=[[0,0.5],[1,0.5]];portConstraint=eastwest;whiteSpace=wrap;html=1;fontFamily=Helvetica;fontSize=12;fontColor=default;" vertex="1" parent="aGmtrT8LyXVgIGSx6u2C-25">
          <mxGeometry y="26" width="220" height="44" as="geometry" />
        </mxCell>
        <mxCell id="aGmtrT8LyXVgIGSx6u2C-27" value="" style="line;strokeWidth=1;fillColor=none;align=left;verticalAlign=middle;spacingTop=-1;spacingLeft=3;spacingRight=3;rotatable=0;labelPosition=right;points=[];portConstraint=eastwest;strokeColor=inherit;fontFamily=Helvetica;fontSize=12;fontColor=default;" vertex="1" parent="aGmtrT8LyXVgIGSx6u2C-25">
          <mxGeometry y="70" width="220" height="8" as="geometry" />
        </mxCell>
        <mxCell id="aGmtrT8LyXVgIGSx6u2C-29" value="&lt;font face=&quot;Lucida Console&quot;&gt;BookFormat&lt;/font&gt;" style="swimlane;fontStyle=1;align=center;verticalAlign=top;childLayout=stackLayout;horizontal=1;startSize=26;horizontalStack=0;resizeParent=1;resizeParentMax=0;resizeLast=0;collapsible=1;marginBottom=0;whiteSpace=wrap;html=1;spacingLeft=4;spacingRight=4;fontFamily=Helvetica;fontSize=12;fontColor=default;fillColor=none;gradientColor=none;" vertex="1" parent="1">
          <mxGeometry x="161" y="550" width="160" height="140" as="geometry" />
        </mxCell>
        <mxCell id="aGmtrT8LyXVgIGSx6u2C-30" value="&lt;font face=&quot;Lucida Console&quot;&gt;HARDCOVER,&lt;/font&gt;&lt;div&gt;&lt;font face=&quot;Lucida Console&quot;&gt;PAPERBACK,&lt;/font&gt;&lt;/div&gt;&lt;div&gt;&lt;font face=&quot;Lucida Console&quot;&gt;AUDIO_BOOK,&lt;/font&gt;&lt;/div&gt;&lt;div&gt;&lt;font face=&quot;Lucida Console&quot;&gt;EBOOK,&lt;/font&gt;&lt;/div&gt;&lt;div&gt;&lt;font face=&quot;Lucida Console&quot;&gt;NEWSPAPER,&lt;/font&gt;&lt;/div&gt;&lt;div&gt;&lt;font face=&quot;Lucida Console&quot;&gt;MAGAZINE,&lt;/font&gt;&lt;/div&gt;&lt;div&gt;&lt;font face=&quot;Lucida Console&quot;&gt;JOURNAL&lt;/font&gt;&lt;/div&gt;&lt;div&gt;&lt;font face=&quot;Lucida Console&quot;&gt;&lt;br&gt;&lt;/font&gt;&lt;/div&gt;" style="text;strokeColor=none;fillColor=none;align=left;verticalAlign=top;spacingLeft=4;spacingRight=4;overflow=hidden;rotatable=0;points=[[0,0.5],[1,0.5]];portConstraint=eastwest;whiteSpace=wrap;html=1;fontFamily=Helvetica;fontSize=12;fontColor=default;" vertex="1" parent="aGmtrT8LyXVgIGSx6u2C-29">
          <mxGeometry y="26" width="160" height="114" as="geometry" />
        </mxCell>
        <mxCell id="aGmtrT8LyXVgIGSx6u2C-31" value="" style="endArrow=diamondThin;endFill=1;endSize=24;html=1;rounded=0;fontFamily=Helvetica;fontSize=12;fontColor=default;entryX=0;entryY=0.5;entryDx=0;entryDy=0;exitX=1;exitY=0.5;exitDx=0;exitDy=0;" edge="1" parent="1" source="aGmtrT8LyXVgIGSx6u2C-26" target="aGmtrT8LyXVgIGSx6u2C-22">
          <mxGeometry width="160" relative="1" as="geometry">
            <mxPoint x="385" y="550" as="sourcePoint" />
            <mxPoint x="545" y="550" as="targetPoint" />
          </mxGeometry>
        </mxCell>
        <mxCell id="aGmtrT8LyXVgIGSx6u2C-32" value="" style="endArrow=diamondThin;endFill=0;endSize=24;html=1;rounded=0;fontFamily=Helvetica;fontSize=12;fontColor=default;exitX=1;exitY=0.5;exitDx=0;exitDy=0;" edge="1" parent="1" source="aGmtrT8LyXVgIGSx6u2C-30" target="aGmtrT8LyXVgIGSx6u2C-22">
          <mxGeometry width="160" relative="1" as="geometry">
            <mxPoint x="385" y="580" as="sourcePoint" />
            <mxPoint x="545" y="580" as="targetPoint" />
          </mxGeometry>
        </mxCell>
        <mxCell id="aGmtrT8LyXVgIGSx6u2C-33" value="&lt;font face=&quot;Lucida Console&quot;&gt;BookStatus&lt;/font&gt;" style="swimlane;fontStyle=1;align=center;verticalAlign=top;childLayout=stackLayout;horizontal=1;startSize=26;horizontalStack=0;resizeParent=1;resizeParentMax=0;resizeLast=0;collapsible=1;marginBottom=0;whiteSpace=wrap;html=1;spacingLeft=4;spacingRight=4;fontFamily=Helvetica;fontSize=12;fontColor=default;fillColor=none;gradientColor=none;" vertex="1" parent="1">
          <mxGeometry x="361" y="664" width="160" height="100" as="geometry" />
        </mxCell>
        <mxCell id="aGmtrT8LyXVgIGSx6u2C-34" value="&lt;font face=&quot;Lucida Console&quot;&gt;AVAILABLE,&lt;/font&gt;&lt;div&gt;&lt;font face=&quot;Lucida Console&quot;&gt;RESERVED,&lt;/font&gt;&lt;/div&gt;&lt;div&gt;&lt;font face=&quot;Lucida Console&quot;&gt;LOANED,&lt;/font&gt;&lt;/div&gt;&lt;div&gt;&lt;font face=&quot;Lucida Console&quot;&gt;LOST&lt;/font&gt;&lt;/div&gt;" style="text;strokeColor=none;fillColor=none;align=left;verticalAlign=top;spacingLeft=4;spacingRight=4;overflow=hidden;rotatable=0;points=[[0,0.5],[1,0.5]];portConstraint=eastwest;whiteSpace=wrap;html=1;fontFamily=Helvetica;fontSize=12;fontColor=default;" vertex="1" parent="aGmtrT8LyXVgIGSx6u2C-33">
          <mxGeometry y="26" width="160" height="74" as="geometry" />
        </mxCell>
        <mxCell id="aGmtrT8LyXVgIGSx6u2C-35" value="" style="endArrow=diamondThin;endFill=0;endSize=24;html=1;rounded=0;fontFamily=Helvetica;fontSize=12;fontColor=default;exitX=0.5;exitY=0;exitDx=0;exitDy=0;entryX=-0.007;entryY=0.807;entryDx=0;entryDy=0;entryPerimeter=0;" edge="1" parent="1" source="aGmtrT8LyXVgIGSx6u2C-33" target="aGmtrT8LyXVgIGSx6u2C-22">
          <mxGeometry width="160" relative="1" as="geometry">
            <mxPoint x="401" y="689" as="sourcePoint" />
            <mxPoint x="551" y="529" as="targetPoint" />
          </mxGeometry>
        </mxCell>
        <mxCell id="aGmtrT8LyXVgIGSx6u2C-36" value="&lt;font face=&quot;Lucida Console&quot;&gt;Extends&lt;/font&gt;" style="endArrow=block;endSize=16;endFill=0;html=1;rounded=0;fontFamily=Helvetica;fontSize=12;fontColor=default;entryX=0.5;entryY=1;entryDx=0;entryDy=0;" edge="1" parent="1" target="aGmtrT8LyXVgIGSx6u2C-1">
          <mxGeometry width="160" relative="1" as="geometry">
            <mxPoint x="711" y="369" as="sourcePoint" />
            <mxPoint x="556" y="399" as="targetPoint" />
          </mxGeometry>
        </mxCell>
        <mxCell id="aGmtrT8LyXVgIGSx6u2C-38" value="&lt;font style=&quot;font-size: 14px;&quot; face=&quot;Lucida Console&quot;&gt;&lt;b&gt;Step 1&lt;/b&gt;&lt;/font&gt;" style="text;strokeColor=none;fillColor=none;align=left;verticalAlign=top;spacingLeft=4;spacingRight=4;overflow=hidden;rotatable=0;points=[[0,0.5],[1,0.5]];portConstraint=eastwest;whiteSpace=wrap;html=1;fontFamily=Helvetica;fontSize=12;fontColor=default;" vertex="1" parent="1">
          <mxGeometry x="691" y="59" width="70" height="30" as="geometry" />
        </mxCell>
        <mxCell id="aGmtrT8LyXVgIGSx6u2C-45" value="&lt;font style=&quot;font-size: 14px;&quot; face=&quot;Lucida Console&quot;&gt;&lt;b&gt;Step 1a&lt;/b&gt;&lt;/font&gt;" style="text;strokeColor=none;fillColor=none;align=left;verticalAlign=top;spacingLeft=4;spacingRight=4;overflow=hidden;rotatable=0;points=[[0,0.5],[1,0.5]];portConstraint=eastwest;whiteSpace=wrap;html=1;fontFamily=Helvetica;fontSize=12;fontColor=default;" vertex="1" parent="1">
          <mxGeometry x="331" y="126" width="80" height="30" as="geometry" />
        </mxCell>
        <mxCell id="aGmtrT8LyXVgIGSx6u2C-46" value="&lt;font style=&quot;font-size: 14px;&quot; face=&quot;Lucida Console&quot;&gt;&lt;b&gt;Step 2&lt;/b&gt;&lt;/font&gt;" style="text;strokeColor=none;fillColor=none;align=left;verticalAlign=top;spacingLeft=4;spacingRight=4;overflow=hidden;rotatable=0;points=[[0,0.5],[1,0.5]];portConstraint=eastwest;whiteSpace=wrap;html=1;fontFamily=Helvetica;fontSize=12;fontColor=default;" vertex="1" parent="1">
          <mxGeometry x="761" y="350" width="70" height="30" as="geometry" />
        </mxCell>
        <mxCell id="aGmtrT8LyXVgIGSx6u2C-47" value="&lt;font style=&quot;font-size: 14px;&quot; face=&quot;Lucida Console&quot;&gt;&lt;b&gt;Step 2a&lt;/b&gt;&lt;/font&gt;" style="text;strokeColor=none;fillColor=none;align=left;verticalAlign=top;spacingLeft=4;spacingRight=4;overflow=hidden;rotatable=0;points=[[0,0.5],[1,0.5]];portConstraint=eastwest;whiteSpace=wrap;html=1;fontFamily=Helvetica;fontSize=12;fontColor=default;" vertex="1" parent="1">
          <mxGeometry x="201" y="410" width="120" height="30" as="geometry" />
        </mxCell>
        <mxCell id="aGmtrT8LyXVgIGSx6u2C-48" value="&lt;font style=&quot;font-size: 14px;&quot; face=&quot;Lucida Console&quot;&gt;&lt;b&gt;Step 2b&lt;/b&gt;&lt;/font&gt;" style="text;strokeColor=none;fillColor=none;align=left;verticalAlign=top;spacingLeft=4;spacingRight=4;overflow=hidden;rotatable=0;points=[[0,0.5],[1,0.5]];portConstraint=eastwest;whiteSpace=wrap;html=1;fontFamily=Helvetica;fontSize=12;fontColor=default;" vertex="1" parent="1">
          <mxGeometry x="197" y="520" width="120" height="30" as="geometry" />
        </mxCell>
        <mxCell id="aGmtrT8LyXVgIGSx6u2C-49" value="&lt;font style=&quot;font-size: 14px;&quot; face=&quot;Lucida Console&quot;&gt;&lt;b&gt;Step 2c&lt;/b&gt;&lt;/font&gt;" style="text;strokeColor=none;fillColor=none;align=left;verticalAlign=top;spacingLeft=4;spacingRight=4;overflow=hidden;rotatable=0;points=[[0,0.5],[1,0.5]];portConstraint=eastwest;whiteSpace=wrap;html=1;fontFamily=Helvetica;fontSize=12;fontColor=default;" vertex="1" parent="1">
          <mxGeometry x="375" y="634" width="120" height="30" as="geometry" />
        </mxCell>
      </root>
    </mxGraphModel>
  </diagram>
</mxfile>
